<?xml version="1.0" encoding="UTF-8"?>
<svg width="25px" height="20px" viewBox="0 0 25 20" version="1.1" xmlns="http://www.w3.org/2000/svg" xmlns:xlink="http://www.w3.org/1999/xlink">
    <!-- Generator: Sketch 51.2 (57519) - http://www.bohemiancoding.com/sketch -->
    <title>Artboard</title>
    <desc>Created with Sketch.</desc>
    <defs></defs>
    <g id="Page-1" stroke="none" stroke-width="1" fill="none" fill-rule="evenodd">
        <g id="Artboard" transform="translate(-366.000000, -184.000000)" fill="#000000">
            <g id="frame-landscape" transform="translate(366.000000, 184.000000)">
                <path d="M24.5518775,0.0866 L0.395256917,0.0866 C0.177173913,0.0866 0,0.2655 0,0.4866 L0,19.5998 C0,19.8209 0.177173913,19.9998 0.395256917,19.9998 L24.5518775,19.9998 C24.7703557,19.9998 24.9471344,19.8209 24.9471344,19.5998 L24.9471344,0.4866 C24.9471344,0.2655 24.7703557,0.0866 24.5518775,0.0866 Z M23.0002441,17.0549316 L17.1396245,11.1139 C17.0794466,11.051 16.9810277,11.0471 16.9161067,11.1045 L13.145751,14.4631 L8.32667984,8.458 C8.29535573,8.419 8.24980237,8.3967 8.19812253,8.3975 C8.1479249,8.3987 8.10158103,8.4229 8.07193676,8.4635 L2.01989746,15.673643 L2.01989746,1.95654297 L23.0002441,1.95654297 L23.0002441,17.0549316 Z" id="Fill-1"></path>
                <path d="M16.6054348,8.2643 C17.6757905,8.2643 18.544664,7.3858 18.544664,6.3022 C18.544664,5.2186 17.6757905,4.3393 16.6054348,4.3393 C15.5342885,4.3393 14.6666008,5.2186 14.6666008,6.3022 C14.6666008,7.3858 15.5342885,8.2643 16.6054348,8.2643 Z" id="Fill-2"></path>
            </g>
        </g>
    </g>
</svg>