<?xml version="1.0" encoding="UTF-8"?>
<svg width="27px" height="19px" viewBox="0 0 27 19" version="1.1" xmlns="http://www.w3.org/2000/svg" xmlns:xlink="http://www.w3.org/1999/xlink">
    <!-- Generator: Sketch 51.2 (57519) - http://www.bohemiancoding.com/sketch -->
    <title>video-player (1)</title>
    <desc>Created with Sketch.</desc>
    <defs>
        <polygon id="path-1" points="26.9844337 0.128110294 0.00826530612 0.128110294 0.00826530612 18.9998603 26.9844337 18.9998603 26.9844337 0.128110294"></polygon>
    </defs>
    <g id="Page-1" stroke="none" stroke-width="1" fill="none" fill-rule="evenodd">
        <g id="Artboard" transform="translate(-287.000000, -188.000000)">
            <g id="video-player-(1)" transform="translate(287.000000, 188.000000)">
                <mask id="mask-2" fill="white">
                    <use xlink:href="#path-1"></use>
                </mask>
                <g id="Clip-2"></g>
                <path d="M26.5485765,0.228 C26.2805051,0.0817279412 25.9549898,0.0969558824 25.7009694,0.267257353 L18.5786173,5.05218382 L18.5786173,3.07674265 C18.5786173,1.45908824 17.2812398,0.142919118 15.6857602,0.142919118 L2.89285714,0.142919118 C1.29792857,0.142919118 0,1.45908824 0,3.07674265 L0,16.0513676 C0,17.6688824 1.29792857,18.9851912 2.89285714,18.9851912 L15.6857602,18.9851912 C17.2812398,18.9851912 18.5786173,17.6688824 18.5786173,16.0513676 L18.5786173,14.0763456 L25.7009694,18.8607132 C25.8392755,18.9529191 25.9981071,18.9998603 26.1579031,18.9998603 C26.291801,18.9998603 26.4263878,18.9671691 26.5485765,18.8999706 C26.8170612,18.7542574 26.9844337,18.4705147 26.9844337,18.161625 L26.9844337,0.966345588 C26.9844337,0.657455882 26.8170612,0.373713235 26.5485765,0.228 Z M16.9255561,16.0513676 C16.9255561,16.7444485 16.3697143,17.3087206 15.6857602,17.3087206 L2.89285714,17.3087206 C2.20945408,17.3087206 1.65306122,16.7444485 1.65306122,16.0513676 L1.65306122,3.07674265 C1.65306122,2.38366176 2.20945408,1.81938971 2.89285714,1.81938971 L15.6857602,1.81938971 C16.3697143,1.81938971 16.9255561,2.38366176 16.9255561,3.07674265 L16.9255561,16.0513676 Z M25.3313724,16.6008309 L18.5786173,12.0652794 L18.5786173,7.06269118 L25.3313724,2.52713971 L25.3313724,16.6008309 Z" id="Fill-1" fill="#000000" mask="url(#mask-2)"></path>
            </g>
        </g>
    </g>
</svg>