<?xml version="1.0" encoding="UTF-8"?>
<svg width="25px" height="22px" viewBox="0 0 25 22" version="1.1" xmlns="http://www.w3.org/2000/svg" xmlns:xlink="http://www.w3.org/1999/xlink">
    <!-- Generator: Sketch 51.2 (57519) - http://www.bohemiancoding.com/sketch -->
    <title>Artboard</title>
    <desc>Created with Sketch.</desc>
    <defs></defs>
    <g id="Page-1" stroke="none" stroke-width="1" fill="none" fill-rule="evenodd">
        <g id="Artboard" transform="translate(-258.000000, -242.000000)" fill="#000000">
            <g id="Group" transform="translate(258.000000, 242.000000)">
                <path d="M7.28843749,13 L7.28843749,10.7412109 L0.986679673,10.7412109 L0.986679673,8.48242188 C1.53746368,7.4277291 2.19663677,6.28223274 2.96421874,5.04589844 C3.7318007,3.80956413 4.76597004,2.23340802 6.0667578,0.317382812 L9.81968749,0.317382812 L9.81968749,8.61425781 L11.4720312,8.61425781 L11.4720312,10.7412109 L9.81968749,10.7412109 L9.81968749,13 L7.28843749,13 Z M3.31578124,8.62304688 L3.31578124,8.69335938 L7.34117186,8.69335938 L7.34117186,2.19824219 L7.29722655,2.19824219 C6.37730007,3.55176458 5.61265928,4.71190923 5.00328124,5.67871094 C4.39390319,6.64551265 3.83140881,7.62694814 3.31578124,8.62304688 Z M16.0859375,13 L16.0859375,9.12402344 L17.2724609,7.70019531 L21.0253906,13 L24.2070312,13 L19.1884766,5.94238281 L23.8818359,0.317382812 L20.9287109,0.317382812 L16.1650391,6.10058594 L16.0859375,6.10058594 L16.0859375,0.317382812 L13.4316406,0.317382812 L13.4316406,13 L16.0859375,13 Z" id="4K"></path>
                <path d="M6.51074219,21.5039062 L6.51074219,15.1625977 L5.18359375,15.1625977 L5.18359375,17.737793 L2.32714844,17.737793 L2.32714844,15.1625977 L1,15.1625977 L1,21.5039062 L2.32714844,21.5039062 L2.32714844,18.8320312 L5.18359375,18.8320312 L5.18359375,21.5039062 L6.51074219,21.5039062 Z M9.57847658,21.5039062 L9.57847658,15.1625977 L8.25132814,15.1625977 L8.25132814,21.5039062 L9.57847658,21.5039062 Z M16.8913282,18.9287109 L16.8913282,18.1245117 L14.2282422,18.1245117 L14.2282422,19.0913086 L15.599336,19.0913086 L15.5949414,19.2143555 C15.5832226,19.6069356 15.4404018,19.9248035 15.1664746,20.1679688 C14.8925475,20.411134 14.5373264,20.5327148 14.1008008,20.5327148 C13.5793138,20.5327148 13.1647672,20.3349629 12.8571485,19.9394531 C12.5495297,19.5439433 12.3957227,19.0019566 12.3957227,18.3134766 C12.3957227,17.6396451 12.5436704,17.1079121 12.8395703,16.7182617 C13.1354703,16.3286113 13.5382983,16.1337891 14.0480664,16.1337891 C14.4172089,16.1337891 14.7292175,16.2238761 14.9841016,16.4040527 C15.2389857,16.5842294 15.41623,16.8398421 15.5158399,17.1708984 L16.8341992,17.1708984 C16.7433785,16.5146452 16.4438209,15.9887715 15.9355176,15.5932617 C15.4272143,15.1977519 14.7980702,15 14.0480664,15 C13.1252103,15 12.3927957,15.2995576 11.8508008,15.8986816 C11.3088059,16.4978057 11.0378125,17.3071238 11.0378125,18.3266602 C11.0378125,19.360845 11.3088059,20.1760224 11.8508008,20.7722168 C12.3927957,21.3684112 13.1354641,21.6665039 14.0788282,21.6665039 C14.9430903,21.6665039 15.6278979,21.4204126 16.1332715,20.9282227 C16.6386451,20.4360327 16.8913282,19.7695355 16.8913282,18.9287109 Z M23.8745899,21.5039062 L23.8745899,15.1625977 L22.5474415,15.1625977 L22.5474415,17.737793 L19.6909961,17.737793 L19.6909961,15.1625977 L18.3638477,15.1625977 L18.3638477,21.5039062 L19.6909961,21.5039062 L19.6909961,18.8320312 L22.5474415,18.8320312 L22.5474415,21.5039062 L23.8745899,21.5039062 Z" id="HIGH"></path>
            </g>
        </g>
    </g>
</svg>