<?xml version="1.0" encoding="UTF-8"?>
<svg width="136px" height="21px" viewBox="0 0 136 21" version="1.1" xmlns="http://www.w3.org/2000/svg" xmlns:xlink="http://www.w3.org/1999/xlink">
    <!-- Generator: Sketch 51.2 (57519) - http://www.bohemiancoding.com/sketch -->
    <title>Artboard</title>
    <desc>Created with Sketch.</desc>
    <defs></defs>
    <g id="Page-1" stroke="none" stroke-width="1" fill="none" fill-rule="evenodd">
        <g id="Artboard" transform="translate(-90.000000, -20.000000)" fill="#FFFFFF">
            <g id="Brandmark_Videri_Thickened" transform="translate(90.000000, 20.000000)">
                <path d="M59.6279096,14.8183553 C59.1553793,16.0074342 58.539061,16.9561184 57.7795429,17.6622588 C57.0197307,18.3679386 56.171852,18.8716009 55.2363479,19.17125 C54.3005498,19.4713596 53.3697504,19.6208772 52.4433617,19.6208772 L47.1070336,19.6208772 L47.1070336,1.10664474 L52.1931295,1.10664474 C52.6746281,1.10664474 53.2167,1.14026316 53.8191982,1.20811404 C54.4208142,1.27611842 55.0231653,1.41596491 55.6256635,1.62888158 C56.2274265,1.84179825 56.8112528,2.14651316 57.3767013,2.54302632 C57.9415617,2.93969298 58.4420262,3.48142544 58.8775068,4.16776316 C59.3123993,4.85517544 59.6648122,5.7014693 59.9337163,6.70695175 C60.2021794,7.71335526 60.3365579,8.92269737 60.3365579,10.3346711 C60.3365579,12.1334868 60.1004398,13.6282018 59.6279096,14.8183553 Z M61.1285681,6.50401316 C60.8412861,5.26611842 60.3455263,4.16346491 59.6418767,3.19605263 C58.937492,2.22864035 57.9971362,1.45480263 56.8208092,0.874232456 C55.6438942,0.293815789 54.1664653,0.00399122807 52.3877872,0.00399122807 L45.8842476,0.00399122807 L45.8842476,20.7236842 L52.3320657,20.7236842 C53.9253484,20.7236842 55.3011848,20.4575 56.459575,19.9255921 C57.617083,19.3936842 58.5762577,18.663136 59.3359229,17.7347149 C60.0955881,16.8059868 60.6563319,15.7080921 61.0175661,14.4410307 C61.3789474,13.1741228 61.559638,11.8048246 61.559638,10.3346711 C61.559638,9.01910088 61.41585,7.74221491 61.1285681,6.50401316 Z" id="Fill-1"></path>
                <polyline id="Fill-3" points="76.1941092 0.00399122807 89.5344885 0.00399122807 89.5344885 1.10664474 77.4166012 1.10664474 77.4166012 9.40609649 88.811726 9.40609649 88.811726 10.5085965 77.4166012 10.5085965 77.4166012 19.6208772 89.6737188 19.6208772 89.6737188 20.7236842 76.1941092 20.7236842 76.1941092 0.00399122807"></polyline>
                <path d="M109.337682,10.1897588 L111.8131,10.1897588 C112.535715,10.1897588 113.207167,10.0979605 113.828337,9.91405702 C114.448772,9.73015351 114.981434,9.44508772 115.426324,9.0579386 C115.870773,8.67094298 116.222745,8.17787281 116.482681,7.57811404 C116.741588,6.97835526 116.871408,6.26254386 116.871408,5.43037281 C116.871408,4.65653509 116.732472,3.99383772 116.454747,3.44258772 C116.17658,2.8910307 115.805789,2.44140351 115.342816,2.09339912 C114.879548,1.74462719 114.342181,1.49364035 113.730861,1.33905702 C113.119395,1.18432018 112.480435,1.10664474 111.8131,1.10664474 L104.753668,1.10664474 L104.753668,20.7236842 L103.531029,20.7236842 L103.531029,0.00399122807 L111.8131,0.00399122807 C112.684061,0.00399122807 113.499007,0.0959429825 114.258966,0.279692982 C115.018337,0.463442982 115.685378,0.762938596 116.260236,1.17910088 C116.834359,1.59510965 117.283807,2.1420614 117.607991,2.81888158 C117.932176,3.49631579 118.094636,4.33754386 118.094636,5.34302632 C118.094636,6.73611842 117.73002,7.92059211 116.96859,8.8689693 C115.769181,10.3636842 115.087879,10.8344956 112.931794,11.0755044 L111.224569,11.0755044 C111.652257,11.6391886 118.370744,20.5298026 118.519383,20.7236842 L117.010492,20.7236842 L109.337682,10.1897588" id="Fill-4"></path>
                <polygon id="Fill-5" points="132.833934 20.7236842 134.05672 20.7236842 134.05672 0.00399122807 132.833934 0.00399122807"></polygon>
                <polyline id="Fill-6" points="15.0084964 0.00399122807 8.14342847 19.6208772 8.08800099 19.6208772 1.27850754 0.00399122807 0 0.00399122807 7.39317272 20.7236842 8.81046948 20.7236842 16.2311354 0.00399122807 15.0084964 0.00399122807"></polyline>
                <polygon id="Fill-7" points="29.4543378 20.7236842 30.6772708 20.7236842 30.6772708 0.00399122807 29.4543378 0.00399122807"></polygon>
            </g>
        </g>
    </g>
</svg>